<svg width="327" height="307" viewBox="0 0 327 307" fill="none" xmlns="http://www.w3.org/2000/svg">
<path d="M178.869 242.928H103.996V300.628H178.869V242.928Z" fill="#EBEBEB"/>
<path d="M160.114 300.197C160.042 300.197 159.898 287.335 159.898 271.455C159.898 255.575 159.97 242.713 160.114 242.713C160.258 242.713 160.33 255.575 160.33 271.455C160.258 287.335 160.186 300.197 160.114 300.197Z" fill="#E0E0E0"/>
<path d="M172.475 287.479H166.727V293.945H172.475V287.479Z" fill="#FAFAFA"/>
<path d="M135.327 243.072H126.848V255.36H135.327V243.072Z" fill="#E0E0E0"/>
<path d="M135.327 288.125H126.848V300.413H135.327V288.125Z" fill="#E0E0E0"/>
<path d="M314.604 228.413H220.258V301.202H314.604V228.413Z" fill="#EBEBEB"/>
<path d="M290.962 300.7C290.89 300.7 290.746 284.46 290.746 264.485C290.746 244.437 290.818 228.27 290.962 228.27C291.105 228.27 291.177 244.509 291.177 264.485C291.177 284.46 291.105 300.7 290.962 300.7Z" fill="#E0E0E0"/>
<path d="M306.628 284.604H299.371V292.796H306.628V284.604Z" fill="#FAFAFA"/>
<path d="M259.777 228.629H249.07V244.15H259.777V228.629Z" fill="#E0E0E0"/>
<path d="M259.777 285.466H249.07V300.987H259.777V285.466Z" fill="#E0E0E0"/>
<path d="M42.5592 230.569C46.3675 228.629 50.8944 228.341 55.1338 229.06C57.4332 229.419 59.8044 230.138 61.3134 231.862C62.8942 233.587 63.1816 236.605 61.3852 238.042C60.3074 238.904 58.8703 239.048 57.505 239.048C54.1997 238.976 50.5351 238.401 47.8764 240.413C46.3675 241.563 45.3615 243.431 43.5651 244.006C41.7687 244.581 39.8287 243.503 38.8945 241.922C37.9604 240.341 37.9604 238.329 38.3915 236.533C38.2478 236.461 38.679 232.581 42.5592 230.569Z" fill="#EBEBEB"/>
<path d="M33.793 213.683C36.1642 216.989 40.6911 215.911 42.7749 213.899C44.8587 211.887 45.7928 208.941 46.5832 206.067C48.4515 199.671 50.3197 192.917 48.9545 186.378C48.5233 184.438 47.8048 182.498 46.4395 180.989C45.0743 179.552 42.9186 178.69 41.0504 179.193C38.751 179.768 37.3139 182.067 36.3079 184.151C33.29 190.402 31.7092 197.372 31.6373 204.342C31.5655 207.576 31.9248 210.953 33.793 213.683Z" fill="#EBEBEB"/>
<path d="M27.398 218.426C29.9129 215.408 30.4159 211.024 29.2662 207.288C28.1165 203.552 25.6016 200.318 22.6555 197.659C19.2065 194.57 15.1826 192.198 10.7994 190.689C9.0749 190.115 7.27852 189.612 5.48214 189.755C3.68576 189.899 1.88937 190.833 1.02711 192.486C-0.194429 194.857 0.955255 197.731 2.24865 200.102C4.54802 204.27 7.13481 208.222 10.009 211.959C12.3084 214.976 15.0389 217.923 18.5598 219.288C22.0807 220.653 25.8172 220.509 27.6854 217.994" fill="#EBEBEB"/>
<path d="M33.6488 263.982C33.7206 263.982 33.7925 263.479 33.8643 262.473C33.9362 261.395 34.0799 259.958 34.2955 258.305C34.511 256.581 34.7266 254.497 35.2296 252.269C35.7326 250.042 36.4511 247.599 37.4571 245.084C38.4631 242.641 39.6846 240.413 41.1217 238.617C42.5588 236.82 44.2115 235.527 45.7204 234.808C47.3013 234.018 48.6665 233.731 49.6006 233.587C50.5348 233.515 51.1096 233.443 51.1096 233.371C51.1096 233.299 50.5348 233.299 49.6006 233.371C48.5947 233.443 47.1576 233.659 45.5767 234.449C43.9241 235.168 42.1995 236.461 40.6906 238.329C39.1816 240.126 37.8882 242.425 36.8822 244.94C35.8763 247.455 35.1577 249.898 34.7266 252.197C34.2955 254.497 34.0799 256.581 33.9362 258.377C33.7925 260.101 33.7206 261.539 33.7206 262.545C33.5769 263.407 33.5769 263.982 33.6488 263.982Z" fill="#E0E0E0"/>
<path d="M33.9382 260.82C33.9382 260.82 33.9382 260.605 34.0101 260.102C34.0101 259.599 34.0101 258.88 34.0101 258.09C34.0101 256.365 34.0101 253.85 34.082 250.689C34.2257 244.437 34.8005 237.755 35.8065 228.27C36.8125 219.36 38.1059 209.013 39.4711 202.258C39.7585 200.749 40.0459 199.384 40.3334 198.162C40.6208 196.941 40.8364 195.935 41.0519 195.073C41.2675 194.282 41.4112 193.636 41.5549 193.133C41.6268 192.701 41.6986 192.414 41.6986 192.414C41.6986 192.414 41.6268 192.63 41.4831 193.061C41.3393 193.564 41.1238 194.21 40.9082 195.001C40.6208 195.863 40.4052 196.869 40.0459 198.091C39.7585 199.312 39.3992 200.677 39.04 202.186C37.6747 208.294 36.2376 216.845 35.1598 226.33C34.1538 235.815 33.6508 244.437 33.579 250.689C33.5071 253.85 33.579 256.365 33.7227 258.09C33.7945 258.88 33.7945 259.599 33.8664 260.102C33.8664 260.533 33.8664 260.82 33.9382 260.82Z" fill="#E0E0E0"/>
<path d="M33.9368 244.15C34.0086 244.15 34.0086 243.431 33.9368 242.066C33.8649 240.701 33.6493 238.761 33.2901 236.389C32.8589 234.018 32.3559 231.144 31.4218 228.126C31.0625 226.689 30.1284 223.384 27.9728 218.282C25.0986 211.456 21.2184 205.851 17.7693 202.402C16.9789 201.468 16.1166 200.821 15.3981 200.174C15.0388 199.887 14.6795 199.528 14.3921 199.312C14.0328 199.096 13.7454 198.881 13.458 198.665C12.3083 197.875 11.7335 197.516 11.6616 197.516C11.5898 197.659 14.1766 199.168 17.4819 202.689C20.7872 206.21 24.5237 211.743 27.3979 218.497C28.9787 222.162 30.1284 225.467 30.9188 228.198C31.853 231.216 32.4278 234.018 32.8589 236.389C33.2901 238.761 33.5775 240.701 33.7212 241.994C33.793 243.431 33.9368 244.15 33.9368 244.15Z" fill="#E0E0E0"/>
<path d="M16.7656 271.023L18.4183 293.873H47.8071L49.4598 271.023H16.7656Z" fill="#EBEBEB"/>
<path d="M52.9799 261.97H13.8906V270.952H52.9799V261.97Z" fill="#EBEBEB"/>
<path d="M13.8906 293.011V295.454H15.7589H52.3332V293.011H13.8906Z" fill="#E0E0E0"/>
<path d="M17.5542 299.622L15.7578 295.239H50.895L48.8112 299.622H17.5542Z" fill="#E0E0E0"/>
<path d="M48.8827 278.496C48.8827 278.496 48.8108 278.568 48.739 278.712C48.5952 278.855 48.4515 279.071 48.3078 279.287C47.8767 279.789 47.3018 280.58 46.5833 281.442L46.5114 281.514L46.4396 281.442C45.3618 279.933 43.9247 277.993 42.2001 275.622H42.4157C41.1942 277.418 39.757 279.358 38.2481 281.514L38.1044 281.73L37.9607 281.586C36.4517 279.79 34.799 277.778 33.0745 275.766H33.3619C33.2901 275.837 33.2182 275.981 33.0745 276.125C31.5655 278.065 30.0566 279.861 28.6913 281.658L28.5476 281.873L28.4039 281.658C26.895 279.574 25.5297 277.562 24.2363 275.766H24.4519C22.4399 278.065 20.7154 280.077 19.3502 281.586L19.2783 281.658L19.2064 281.514C18.5597 280.364 17.9849 279.502 17.6256 278.855C17.4819 278.568 17.3382 278.352 17.1945 278.137C17.1226 277.993 17.0508 277.921 17.0508 277.849C17.0508 277.849 17.1226 277.921 17.1945 278.065C17.3382 278.281 17.4819 278.496 17.6256 278.784C18.0568 279.43 18.6316 280.292 19.2783 281.442H19.1346C20.428 279.933 22.1525 277.921 24.1645 275.55L24.3082 275.406L24.4519 275.55C25.7453 277.346 27.1105 279.287 28.6195 281.37H28.3321C29.6973 279.646 31.2063 277.778 32.7152 275.837C32.7871 275.694 32.9308 275.622 33.0026 275.478L33.1464 275.334L33.2901 275.478C35.0146 277.562 36.6673 279.502 38.1762 281.298H37.8888C39.3978 279.215 40.8349 277.203 42.0564 275.478L42.2001 275.334L42.3438 275.478C43.9965 277.849 45.4336 279.861 46.4396 281.37H46.2959C47.0144 280.436 47.6611 279.789 48.0923 279.215C48.3078 278.999 48.4515 278.784 48.5952 278.64C48.8108 278.496 48.8827 278.496 48.8827 278.496Z" fill="#F5F5F5"/>
<path d="M49.8902 270.88C49.8902 270.952 42.5609 271.096 33.4353 271.096C24.3816 271.096 16.9805 271.024 16.9805 270.88C16.9805 270.808 24.3097 270.665 33.4353 270.665C42.4891 270.665 49.8902 270.736 49.8902 270.88Z" fill="#F5F5F5"/>
<path d="M255.966 11.5385L249.93 11.5708L250.09 41.5344L256.126 41.5021L255.966 11.5385Z" fill="#E0E0E0"/>
<path d="M213.319 11.6572L197.727 11.7407L197.815 28.2674L213.408 28.1839L213.319 11.6572Z" fill="#EBEBEB"/>
<path d="M228.843 11.5855L213.25 11.6689L213.338 28.1957L228.931 28.1122L228.843 11.5855Z" fill="#F5F5F5"/>
<path d="M197.771 16.297C208.118 16.3689 218.537 16.297 228.884 16.1533C229.1 16.1533 229.1 15.794 228.884 15.794C218.537 15.7222 208.118 15.794 197.771 16.0096C197.555 16.0096 197.555 16.297 197.771 16.297Z" fill="#E0E0E0"/>
<path d="M216.346 27.9342L188.035 28.0859L188.108 41.5947L216.419 41.443L216.346 27.9342Z" fill="#EBEBEB"/>
<path d="M244.514 27.7907L216.203 27.9424L216.275 41.4512L244.586 41.2995L244.514 27.7907Z" fill="#F5F5F5"/>
<path d="M187.995 31.8176C206.821 32.0331 225.719 31.8176 244.545 31.5302C244.76 31.5302 244.76 31.1709 244.545 31.1709C225.719 31.099 206.821 31.099 187.995 31.5302C187.851 31.5302 187.851 31.8176 187.995 31.8176Z" fill="#E0E0E0"/>
<path d="M287.228 41.5176H177.434V46.3319H287.228V41.5176Z" fill="#E0E0E0"/>
<path d="M199.853 43.8892H195.398V60.344H199.853V43.8892Z" fill="#E0E0E0"/>
<path d="M266.393 43.8892H261.938V60.344H266.393V43.8892Z" fill="#E0E0E0"/>
<path d="M261.829 0.401255L255.793 0.433594L256.014 41.6785L262.05 41.6462L261.829 0.401255Z" fill="#EBEBEB"/>
<path d="M271.193 8.08128L261.852 8.13135L262.031 41.544L271.372 41.494L271.193 8.08128Z" fill="#F5F5F5"/>
<path d="M271.134 14.5002C271.134 14.572 269.05 14.6439 266.464 14.6439C263.877 14.6439 261.793 14.572 261.793 14.5002C261.793 14.4283 263.877 14.3564 266.464 14.3564C269.05 14.3564 271.134 14.4283 271.134 14.5002Z" fill="#E0E0E0"/>
<path d="M271.134 13.0636C271.134 13.1355 269.05 13.2073 266.464 13.2073C263.877 13.2073 261.793 13.1355 261.793 13.0636C261.793 12.9918 263.877 12.9199 266.464 12.9199C269.05 12.9199 271.134 12.9918 271.134 13.0636Z" fill="#E0E0E0"/>
<path d="M271.134 36.4162C271.134 36.488 269.05 36.5599 266.464 36.5599C263.877 36.5599 261.793 36.488 261.793 36.4162C261.793 36.3443 263.877 36.2725 266.464 36.2725C269.05 36.2725 271.134 36.3443 271.134 36.4162Z" fill="#E0E0E0"/>
<path d="M271.134 35.0509C271.134 35.1228 269.05 35.1946 266.464 35.1946C263.877 35.1946 261.793 35.1228 261.793 35.0509C261.793 34.9791 263.877 34.9072 266.464 34.9072C269.05 34.9072 271.134 34.9791 271.134 35.0509Z" fill="#E0E0E0"/>
<path d="M266.609 31.9612C266.537 31.9612 266.465 28.584 266.465 24.4164C266.465 20.2488 266.537 16.8716 266.609 16.8716C266.68 16.8716 266.752 20.2488 266.752 24.4164C266.752 28.584 266.68 31.9612 266.609 31.9612Z" fill="#E0E0E0"/>
<path d="M281.41 16.2969H271.207V41.5181H281.41V16.2969Z" fill="#EBEBEB"/>
<path d="M258.701 9.18294C259.654 9.18294 260.426 8.41084 260.426 7.45841C260.426 6.50598 259.654 5.73389 258.701 5.73389C257.749 5.73389 256.977 6.50598 256.977 7.45841C256.977 8.41084 257.749 9.18294 258.701 9.18294Z" fill="#E0E0E0"/>
<path d="M259.207 12.2012H258.129V36.7038H259.207V12.2012Z" fill="#E0E0E0"/>
<path d="M317.912 300.843C317.912 300.915 248.859 301.059 163.711 301.059C78.4904 301.059 9.4375 300.987 9.4375 300.843C9.4375 300.772 78.4904 300.628 163.711 300.628C248.787 300.628 317.912 300.7 317.912 300.843Z" fill="#263238"/>
<path d="M91.2079 37.1348C94.5851 41.2305 96.4533 46.5478 96.3815 51.8651C96.3815 54.883 95.8066 58.2602 97.5311 60.7033C98.8964 62.5715 101.339 63.5056 102.417 65.5176C103.711 67.9607 102.633 71.0505 103.423 73.7091C104.573 77.4456 108.956 79.0264 111.543 81.9725C113.77 84.4874 114.633 88.2239 113.699 91.5292C112.764 94.8346 110.178 97.565 106.944 98.6429C105.22 99.2177 103.28 99.3614 101.627 98.571C99.8305 97.7088 98.7527 95.9124 97.8904 94.116C96.1659 90.6669 80.9326 71.9127 80.0703 68.1762" fill="#263238"/>
<path d="M80.1412 32.6796C73.8898 31.6736 67.9258 35.8412 65.339 41.5178C62.7522 47.2662 62.6804 53.7332 62.4648 60.0564C62.2493 66.3797 61.8181 72.9185 58.5846 78.3795C56.5727 81.8286 53.4111 84.8465 52.9081 88.7985C52.4769 92.3194 54.2733 95.9122 53.6985 99.4331C53.1955 102.523 50.8243 105.182 50.8961 108.271C51.0398 112.008 54.8482 114.81 58.5846 114.954C62.3211 115.026 65.842 113.086 68.7881 110.786C73.5305 106.978 77.4107 102.092 79.9975 96.5589" fill="#263238"/>
<path d="M69.9415 47.5529C69.1511 41.0141 73.8936 34.9783 80.5043 34.3316C86.7557 33.7567 92.3604 38.4273 93.2945 44.6787C94.0849 50.1397 94.8035 55.6726 94.8035 57.6845C94.7316 63.7204 91.2107 66.0916 89.7736 66.8101C89.4143 66.9538 88.5521 67.1694 88.1928 67.2413C88.1928 67.2413 88.1209 67.2413 88.1928 67.3131L89.558 74.2831C90.1329 78.81 87.6179 82.9057 83.0911 83.5524C78.5642 84.1991 74.9714 80.7501 74.2529 76.1513L69.9415 47.5529Z" fill="#FFBE9D"/>
<path d="M92.0749 47.2661C92.003 47.4098 91.2126 46.9787 90.1348 47.1224C89.1288 47.2661 88.4103 47.9128 88.3384 47.7691C88.2666 47.6973 88.3384 47.4817 88.6258 47.1943C88.9133 46.9069 89.4163 46.6194 90.0629 46.4757C90.7096 46.4039 91.2845 46.5476 91.6438 46.7631C92.003 47.0506 92.1467 47.1943 92.0749 47.2661Z" fill="#263238"/>
<path d="M82.9421 49.4927C82.8702 49.6364 82.008 49.2053 81.002 49.349C79.996 49.4927 79.2775 50.1394 79.2056 49.9957C79.1337 49.9238 79.2056 49.7083 79.493 49.4208C79.7804 49.1334 80.2834 48.846 80.9301 48.7023C81.5768 48.6304 82.1517 48.7741 82.511 48.9897C82.8702 49.2053 83.0139 49.4208 82.9421 49.4927Z" fill="#263238"/>
<path d="M86.681 54.9543C86.681 54.8824 87.2559 54.6669 88.3337 54.3795C88.6211 54.3076 88.8367 54.2357 88.8367 54.0202C88.8367 53.8046 88.693 53.5891 88.5493 53.3016C88.19 52.7268 87.8307 52.0801 87.4715 51.4334C85.9625 48.7747 84.8847 46.5472 84.9565 46.4754C85.1002 46.4035 86.3218 48.5592 87.8307 51.2178C88.19 51.8645 88.5493 52.5112 88.8367 53.0861C88.9804 53.3735 89.196 53.6609 89.1241 54.092C89.0523 54.3076 88.9086 54.4513 88.7648 54.5232C88.6211 54.595 88.4774 54.595 88.3337 54.6669C87.3277 54.9543 86.681 55.0262 86.681 54.9543Z" fill="#263238"/>
<path d="M88.1209 67.1694C88.1209 67.1694 84.2407 68.1036 78.8516 65.8042C78.8516 65.8042 81.1509 70.8341 88.4802 69.0377L88.1209 67.1694Z" fill="#EB996E"/>
<path d="M82.4452 46.8345C82.3733 47.122 81.3673 47.122 80.1458 47.4812C78.9243 47.7686 78.062 48.2716 77.8464 48.0561C77.7746 47.9124 77.9183 47.6249 78.2057 47.3375C78.565 46.9782 79.1398 46.6908 79.8584 46.4753C80.5769 46.2597 81.2236 46.3315 81.7266 46.4034C82.2296 46.4753 82.4452 46.6908 82.4452 46.8345Z" fill="#263238"/>
<path d="M91.2093 45.0377C91.0656 45.3251 90.3471 45.1814 89.4848 45.2533C88.6226 45.3251 87.9759 45.6125 87.7603 45.397C87.6884 45.3251 87.7603 45.0377 88.0477 44.7503C88.3351 44.4629 88.8381 44.2473 89.413 44.1754C89.9878 44.1036 90.5626 44.2473 90.8501 44.4629C91.1375 44.6784 91.2812 44.894 91.2093 45.0377Z" fill="#263238"/>
<path d="M80.7201 50.7867C80.792 51.2178 81.2231 51.5052 81.6542 51.5052C82.0854 51.4334 82.4447 51.0022 82.3728 50.5711C82.3009 50.14 81.8698 49.8525 81.4387 49.8525C81.0076 49.9962 80.6483 50.3555 80.7201 50.7867Z" fill="#263238"/>
<path d="M89.7734 48.8462C89.8453 49.2774 90.2764 49.5648 90.7076 49.5648C91.1387 49.4929 91.498 49.0618 91.4261 48.6307C91.3543 48.1995 90.9231 47.9121 90.492 47.9121C90.0609 47.984 89.7734 48.4151 89.7734 48.8462Z" fill="#263238"/>
<path d="M88.3338 56.9661C87.6871 56.7506 87.1122 57.1098 86.8248 57.6128C86.5374 58.1158 86.6092 58.7625 87.0404 59.1218C87.3996 59.4811 88.1182 59.5529 88.5493 59.1936C88.8367 58.9781 88.9805 58.6188 89.0523 58.1877C89.0523 57.8284 89.0523 57.4691 88.8367 57.1817C88.6212 56.8943 88.2619 56.7506 87.9026 56.8943" fill="#EB996E"/>
<path d="M92.5048 39.721C92.0018 37.4216 90.4929 35.4816 88.5528 34.1882C86.9001 33.0385 85.0319 32.3199 83.0199 32.2481C81.0798 32.1762 78.996 32.8229 77.6308 34.1882C76.553 35.1941 76.05 36.6312 75.9781 38.0683L76.1218 37.0624C75.8344 37.8528 75.8344 38.7869 76.1218 39.5773C76.2655 40.0084 76.4811 40.4396 76.6967 40.8707C77.1996 42.0922 78.2056 43.1701 79.3553 43.8168C79.9301 44.1042 80.505 44.3198 81.1517 44.2479C81.7984 44.2479 82.3732 43.9605 82.8044 43.4575C83.3792 42.7389 83.3073 41.733 83.1636 40.8707C83.6666 41.733 84.2415 42.5952 85.1037 43.0982C85.966 43.6012 87.1875 43.6012 87.8342 42.8108C88.4091 42.0204 88.1935 40.9426 87.8342 40.0803C88.4091 40.9426 89.1995 41.5892 90.0617 42.0204C90.5647 42.2359 91.1396 42.3797 91.6426 42.1641C92.0737 41.9485 92.3611 41.5174 92.5048 41.0863C92.6485 40.727 92.5767 40.224 92.5048 39.721Z" fill="#263238"/>
<path d="M87.3294 41.6612C87.2575 41.6612 87.2575 40.7989 86.9701 39.5055C86.6827 38.2121 86.036 36.3439 84.4552 34.9787C83.6647 34.332 82.8025 33.829 81.9402 33.6134C81.078 33.3978 80.2876 33.3978 79.6409 33.5416C78.3475 33.829 77.7008 34.4038 77.6289 34.4038C77.6289 34.4038 77.7726 34.1883 78.06 33.9727C78.3475 33.7571 78.8504 33.4697 79.569 33.326C80.2157 33.1823 81.078 33.1104 82.0121 33.326C82.9462 33.5416 83.8803 34.0445 84.6707 34.6912C86.3234 36.1283 86.9701 38.0684 87.1857 39.4337C87.3294 40.1522 87.3294 40.6552 87.3294 41.0864C87.3294 41.4456 87.3294 41.6612 87.3294 41.6612Z" fill="#455A64"/>
<path d="M153.507 125.373L125.843 114.451C125.843 114.451 111.687 95.912 111.975 95.5527L102.059 106.403L116.501 125.948L149.986 133.78L165.866 133.923C164.573 127.816 153.507 125.373 153.507 125.373Z" fill="#FFBE9D"/>
<path d="M93.294 72.4874L89.5575 71.0503L73.3183 73.1341V76.0083L72.8871 76.0802C72.8871 76.0802 67.8573 77.0143 62.8992 79.9603C56.9353 83.5531 53.8455 90.3794 54.9952 97.2775C55.6419 101.373 56.9353 106.403 59.3783 109.277C64.1208 114.81 68.4321 107.984 68.4321 107.984C68.4321 107.984 71.3782 114.738 71.2345 117.972C71.0907 120.63 69.9411 126.235 69.5099 127.96C69.4381 128.247 69.6536 128.535 69.9411 128.606L104.216 134.93L104.36 126.523L103.282 92.032L101.773 78.6669C101.701 78.5232 101.773 72.1281 93.294 72.4874Z" fill="#8C8CF9"/>
<path d="M101.195 76.2954L114.273 95.1933L103.71 107.984L101.195 76.2954Z" fill="#8C8CF9"/>
<path d="M103.998 116.031C103.998 116.031 103.927 115.6 103.927 114.81C103.927 113.948 103.927 112.87 103.855 111.504C103.783 108.702 103.639 104.822 103.064 100.582C102.49 96.343 101.699 92.5346 101.052 89.8041C100.765 88.5108 100.478 87.3611 100.262 86.5707C100.118 85.7803 99.9746 85.3491 100.046 85.3491C100.046 85.3491 100.19 85.7803 100.406 86.4988C100.621 87.2174 100.909 88.367 101.268 89.7323C101.987 92.4628 102.849 96.2711 103.352 100.511C103.927 104.75 103.998 108.63 103.998 111.433C103.998 112.87 103.998 113.948 103.927 114.738C104.07 115.6 103.998 116.031 103.998 116.031Z" fill="#263238"/>
<path d="M71.8062 87.2892C71.8062 87.3611 70.8002 87.3611 69.2194 87.4329C67.6386 87.5048 65.4111 87.7203 63.0399 88.2233C60.6687 88.7263 58.5848 89.373 57.0759 89.9479C55.5669 90.5227 54.7047 90.882 54.6328 90.882C54.6328 90.882 54.8484 90.7383 55.2077 90.5227C55.6388 90.3071 56.2136 90.0197 56.9322 89.7323C58.4411 89.0856 60.5249 88.367 62.8962 87.8641C65.2674 87.3611 67.4949 87.2174 69.1476 87.1455C69.938 87.1455 70.5847 87.1455 71.0158 87.2174C71.5907 87.2892 71.8062 87.2892 71.8062 87.2892Z" fill="#FAFAFA"/>
<path d="M102.056 95.984C102.056 96.0558 101.41 96.1995 100.404 96.3433C99.3976 96.487 97.9605 96.6307 96.3797 96.7025C94.7989 96.7744 93.3618 96.7025 92.3558 96.6307C91.3498 96.5588 90.7031 96.4151 90.7031 96.4151C90.7031 96.3432 91.3498 96.3432 92.3558 96.4151C93.3618 96.4151 94.7989 96.4151 96.3797 96.4151C97.9605 96.3432 99.3258 96.2714 100.332 96.1995C101.481 95.984 102.056 95.9121 102.056 95.984Z" fill="#FAFAFA"/>
<path d="M108.095 87.4333C108.166 87.5052 107.017 88.6549 105.292 89.7327C103.568 90.8105 102.059 91.3135 101.987 91.1698C101.915 91.0979 103.424 90.4513 105.077 89.3734C106.801 88.3674 108.023 87.3615 108.095 87.4333Z" fill="#FAFAFA"/>
<path d="M102.777 78.6666C102.849 78.7385 101.268 80.1037 98.9691 81.1097C96.6697 82.1157 94.5859 82.2594 94.5859 82.1875C94.5859 82.0438 96.5979 81.7564 98.8254 80.8223C101.125 79.8163 102.777 78.5947 102.777 78.6666Z" fill="#FAFAFA"/>
<path d="M103.495 110.57C103.495 110.57 103.279 110.714 102.848 110.93C102.417 111.145 101.77 111.433 100.908 111.72C99.2553 112.295 96.8841 113.013 94.2254 113.445C91.5668 113.876 89.1237 113.876 87.3273 113.804C86.4651 113.732 85.7465 113.732 85.2435 113.66C84.7405 113.588 84.4531 113.516 84.4531 113.516C84.4531 113.445 85.531 113.516 87.3273 113.588C89.0519 113.588 91.4949 113.516 94.1536 113.085C96.8122 112.654 99.1116 112.079 100.764 111.504C102.489 110.93 103.495 110.57 103.495 110.57Z" fill="#FAFAFA"/>
<path d="M103.78 120.343C103.78 120.343 103.708 120.415 103.492 120.486C103.277 120.63 102.918 120.774 102.558 120.918C101.768 121.277 100.618 121.78 99.1092 122.355C97.6721 122.93 95.8757 123.504 93.8638 124.007C91.8518 124.51 89.6243 125.013 87.2531 125.373C84.8819 125.732 82.5825 125.947 80.5705 126.019C78.4867 126.091 76.6185 126.091 75.0377 126.019C73.4569 125.947 72.2353 125.804 71.3731 125.732C70.9419 125.66 70.6545 125.66 70.3671 125.588C70.1515 125.588 70.0078 125.516 70.0078 125.516C70.0078 125.516 70.1515 125.516 70.3671 125.516C70.6545 125.516 70.9419 125.588 71.3731 125.588C72.2353 125.66 73.5287 125.732 75.0377 125.804C76.6185 125.876 78.4867 125.804 80.4987 125.732C82.5825 125.588 84.81 125.373 87.1812 125.013C89.5525 124.654 91.7081 124.151 93.7201 123.648C95.732 123.145 97.4565 122.57 98.9655 122.067C100.403 121.564 101.624 121.133 102.415 120.774C102.774 120.63 103.061 120.486 103.349 120.415C103.636 120.343 103.78 120.343 103.78 120.343Z" fill="#FAFAFA"/>
<path d="M40.7649 273.107L36.8847 290.64L29.8429 303.645C29.3399 304.58 29.6992 305.729 30.7052 306.232C31.28 306.448 31.8549 306.448 32.3578 306.16C35.6632 304.292 47.7349 297.178 47.9504 295.885C48.166 294.376 53.2677 277.634 53.2677 277.634L40.7649 273.107Z" fill="#8C8CF9"/>
<g opacity="0.6">
<path opacity="0.6" d="M30.6328 306.232L48.1655 294.735L47.9499 295.454C47.8062 296.101 47.4469 296.675 46.8721 297.035C45.435 298.041 41.4111 300.843 32.2855 306.16C31.8543 306.448 31.2077 306.448 30.6328 306.232Z" fill="white"/>
</g>
<g opacity="0.6">
<g opacity="0.6">
<path opacity="0.6" d="M46.0118 288.196C45.5088 288.412 45.2214 288.987 45.3651 289.561C45.5088 290.064 46.1555 290.424 46.6585 290.208C47.1615 289.993 47.5926 289.274 47.3052 288.771C47.0896 288.268 46.2992 287.909 45.8681 288.268" fill="white"/>
</g>
</g>
<path d="M36.5249 299.55C36.3812 299.55 36.2375 298.544 35.3034 297.825C34.4411 297.035 33.3633 297.035 33.3633 296.963C33.3633 296.891 33.5788 296.819 34.01 296.891C34.4411 296.963 35.016 297.107 35.5189 297.538C36.0219 297.969 36.3093 298.472 36.4531 298.903C36.5968 299.262 36.5249 299.55 36.5249 299.55Z" fill="#263238"/>
<path d="M34.6585 301.561C34.5867 301.633 34.1556 300.915 33.2933 300.412C32.431 299.909 31.6406 299.909 31.6406 299.765C31.6406 299.693 32.5747 299.478 33.5089 300.053C34.443 300.699 34.8023 301.561 34.6585 301.561Z" fill="#263238"/>
<path d="M39.541 297.107C39.4691 297.178 38.8224 296.101 37.529 295.238C36.3075 294.376 35.0859 294.089 35.0859 294.017C35.0859 293.945 36.4512 294.017 37.7446 294.951C39.1098 295.813 39.6128 297.107 39.541 297.107Z" fill="#263238"/>
<path d="M41.1972 291.861C41.1254 291.933 40.2631 291.287 39.0416 290.927C37.82 290.568 36.7422 290.64 36.7422 290.496C36.7422 290.424 37.82 290.137 39.1853 290.496C40.4068 290.999 41.2691 291.79 41.1972 291.861Z" fill="#263238"/>
<path d="M42.4167 286.759C42.3448 286.831 41.4826 286.041 40.1892 285.753C38.8239 285.466 37.7461 285.897 37.7461 285.753C37.7461 285.681 37.9617 285.538 38.4646 285.394C38.8958 285.25 39.6143 285.178 40.3329 285.322C41.0514 285.466 41.6263 285.825 41.9856 286.112C42.3448 286.472 42.4885 286.759 42.4167 286.759Z" fill="#263238"/>
<path d="M40.4791 284.819C40.4791 284.819 40.4791 284.604 40.6228 284.173C40.7665 283.742 41.0539 283.167 41.5569 282.592C41.8443 282.304 42.1317 281.945 42.6347 281.801C42.9221 281.73 43.2814 281.873 43.4251 282.161C43.5688 282.448 43.5688 282.736 43.497 283.023C43.2096 284.101 41.988 284.963 40.6946 284.819C39.4012 284.676 38.4671 283.67 38.1797 282.592C38.1078 282.304 38.1078 282.017 38.3234 281.73C38.539 281.442 38.8982 281.442 39.1857 281.514C39.6887 281.73 39.9042 282.089 40.1916 282.376C40.6946 283.023 40.9102 283.598 41.0539 284.029C41.1976 284.46 41.1976 284.676 41.1976 284.676C41.1258 284.676 40.982 283.742 39.9761 282.52C39.7605 282.233 39.4731 281.873 39.1138 281.801C38.9701 281.73 38.7545 281.801 38.6827 281.873C38.6108 282.017 38.539 282.233 38.6108 282.448C38.8264 283.31 39.6887 284.245 40.8383 284.388C41.9162 284.532 42.994 283.813 43.2096 282.879C43.2814 282.664 43.2814 282.448 43.2096 282.304C43.1377 282.161 42.994 282.089 42.7784 282.089C42.4192 282.161 42.0599 282.448 41.8443 282.736C40.6946 283.813 40.5509 284.819 40.4791 284.819Z" fill="#263238"/>
<g opacity="0.3">
<path opacity="0.3" d="M40.2631 274.975L39.4727 278.999L52.191 281.155L53.197 277.634L40.7661 273.107L40.2631 274.975Z" fill="black"/>
</g>
<path d="M97.5289 279.574L96.451 293.586C96.451 293.586 110.391 299.334 110.391 301.993L83.0859 300.915L83.8045 278.999L97.5289 279.574Z" fill="#8C8CF9"/>
<g opacity="0.6">
<g opacity="0.6">
<path opacity="0.6" d="M88.1153 292.077C87.6123 292.221 87.1812 292.795 87.3249 293.298C87.3967 293.801 88.0434 294.233 88.5464 294.089C89.0494 293.945 89.5524 293.298 89.4087 292.795C89.265 292.292 88.5464 291.861 88.0434 292.077" fill="white"/>
</g>
</g>
<g opacity="0.6">
<path opacity="0.6" d="M83.1562 300.915L83.3 298.688L109.383 300.556C109.383 300.556 110.605 301.131 110.389 301.993L83.1562 300.915Z" fill="white"/>
</g>
<path d="M96.9544 293.514C96.9544 293.657 96.3077 293.657 95.5892 294.089C94.9425 294.448 94.5113 295.023 94.4395 294.951C94.2958 294.951 94.5113 294.16 95.3736 293.657C96.164 293.154 96.9544 293.37 96.9544 293.514Z" fill="#263238"/>
<path d="M99.7569 294.808C99.7569 294.951 99.1821 295.167 98.7509 295.67C98.248 296.173 98.1043 296.819 97.9605 296.819C97.8168 296.819 97.745 296.029 98.3917 295.382C98.9665 294.664 99.7569 294.664 99.7569 294.808Z" fill="#263238"/>
<path d="M101.267 298.256C101.123 298.256 100.979 297.609 101.339 296.891C101.698 296.172 102.345 295.885 102.417 296.029C102.488 296.172 102.057 296.532 101.77 297.106C101.411 297.681 101.411 298.256 101.267 298.256Z" fill="#263238"/>
<path d="M96.8099 290.281C96.7381 290.424 96.1632 290.209 95.3728 290.209C94.5824 290.209 94.0076 290.424 93.9357 290.352C93.8639 290.281 94.4387 289.778 95.3728 289.778C96.3069 289.706 96.8818 290.137 96.8099 290.281Z" fill="#263238"/>
<g opacity="0.3">
<path opacity="0.3" d="M97.315 282.376L97.1713 284.891L83.7344 284.244L83.8781 281.298L97.315 282.376Z" fill="black"/>
</g>
<path d="M96.9529 287.406C96.9529 287.478 96.4499 287.55 95.5877 287.335C95.1565 287.263 94.6535 287.119 94.1506 286.832C93.8631 286.688 93.6476 286.544 93.3601 286.4C93.2164 286.329 93.0727 286.257 92.929 286.041C92.7853 285.897 92.7135 285.538 92.929 285.323C93.0727 285.107 93.3601 285.035 93.5039 285.035C93.7194 285.035 93.8631 285.107 94.0068 285.107C94.2943 285.179 94.5817 285.323 94.8691 285.466C95.3721 285.754 95.8032 286.041 96.0906 286.329C96.6655 286.903 96.8811 287.478 96.8811 287.478C96.8092 287.55 96.5218 287.119 95.8751 286.616C95.5877 286.329 95.1565 286.113 94.6535 285.897C94.438 285.826 94.1505 285.682 93.8631 285.61C93.5757 285.538 93.3602 285.538 93.2883 285.61C93.2883 285.682 93.2883 285.682 93.2883 285.754C93.3602 285.826 93.432 285.897 93.5757 285.969C93.7913 286.113 94.0787 286.257 94.2943 286.4C94.7254 286.688 95.2284 286.832 95.5877 286.975C96.4499 287.335 97.0248 287.335 96.9529 287.406Z" fill="#263238"/>
<path d="M96.8109 287.622C96.739 287.622 96.5234 287.119 96.5234 286.257C96.5234 285.825 96.5953 285.322 96.739 284.748C96.8108 284.46 96.9546 284.173 97.0983 283.957C97.242 283.67 97.4576 283.311 97.9605 283.311C98.248 283.311 98.4635 283.526 98.5354 283.742C98.6072 283.957 98.6072 284.101 98.6791 284.245C98.751 284.532 98.6791 284.891 98.6791 285.179C98.5354 285.754 98.3198 286.257 98.0324 286.544C97.4575 287.263 96.8827 287.334 96.8827 287.334C96.8109 287.263 97.3138 287.047 97.745 286.328C97.9605 285.969 98.1761 285.538 98.248 285.035C98.3198 284.748 98.3198 284.532 98.248 284.245C98.248 283.957 98.1042 283.742 98.0324 283.742C97.8887 283.742 97.6731 283.957 97.5294 284.173C97.3857 284.388 97.242 284.676 97.1701 284.891C96.9546 285.394 96.8827 285.825 96.8827 286.257C96.739 287.119 96.8827 287.622 96.8109 287.622Z" fill="#263238"/>
<path d="M69.292 128.319C69.292 128.319 64.9807 128.535 62.1065 143.265C59.2323 157.995 37.3164 277.491 37.3164 277.491L53.1964 277.634L83.1601 164.031L81.1481 281.155L97.3156 282.377C97.3156 282.377 109.459 152.822 109.531 145.277C109.675 135.864 104.286 126.379 104.286 126.379L69.292 128.319Z" fill="#263238"/>
<path d="M91.1361 127.025C91.2079 127.025 89.5553 135.504 87.4715 145.851C85.3158 156.199 83.5194 164.606 83.4476 164.606C83.3757 164.606 85.0284 156.127 87.1122 145.78C89.196 135.432 91.0642 127.025 91.1361 127.025Z" fill="#455A64"/>
<path d="M93.6512 129.181C93.6512 129.109 94.0824 129.038 94.5853 129.469C94.8009 129.684 95.0165 130.044 95.0165 130.475C95.0165 130.906 94.6572 131.409 94.2261 131.552C93.7949 131.768 93.2201 131.696 92.8608 131.409C92.5015 131.121 92.4297 130.69 92.4297 130.403C92.4297 129.756 92.8608 129.541 92.8608 129.541C92.9327 129.612 92.6453 129.828 92.6453 130.403C92.6453 130.69 92.789 130.978 93.0045 131.193C93.2201 131.409 93.6512 131.409 94.0105 131.265C94.3698 131.121 94.5854 130.834 94.6572 130.475C94.6572 130.187 94.5135 129.828 94.3698 129.684C94.0105 129.181 93.5794 129.253 93.6512 129.181Z" fill="#455A64"/>
<path d="M92.9333 135.002C92.9333 134.93 93.3644 135.002 93.6519 135.576C93.7956 135.864 93.7956 136.223 93.58 136.654C93.3644 137.014 92.8615 137.301 92.4303 137.229C91.9273 137.229 91.4962 136.87 91.3525 136.439C91.2088 136.008 91.3525 135.648 91.4962 135.361C91.8555 134.858 92.2866 134.858 92.2866 134.858C92.2866 134.93 91.9273 135.002 91.7118 135.433C91.6399 135.648 91.5681 135.936 91.7118 136.223C91.7836 136.511 92.1429 136.726 92.5022 136.726C92.8615 136.726 93.2207 136.582 93.3644 136.367C93.5082 136.079 93.5082 135.792 93.4363 135.576C93.2207 135.217 92.9333 135.073 92.9333 135.002Z" fill="#455A64"/>
<path d="M77.699 129.325C77.699 129.325 77.699 129.612 77.4834 130.043C77.3397 130.474 77.0523 131.193 76.6212 131.911C75.8308 133.492 74.25 135.432 72.0224 136.941C69.7949 138.45 67.3519 139.025 65.5555 139.169C64.6932 139.241 63.9747 139.241 63.4717 139.169C62.9687 139.097 62.6813 139.097 62.7531 139.025C62.7531 138.953 63.8309 139.097 65.5555 138.881C67.28 138.666 69.6512 138.019 71.8069 136.582C74.0344 135.145 75.5434 133.205 76.4056 131.768C77.3397 130.331 77.6272 129.253 77.699 129.325Z" fill="#455A64"/>
<path d="M108.596 139.816C108.596 139.816 108.381 139.744 108.093 139.528C107.806 139.313 107.375 139.025 106.944 138.522C106.01 137.66 104.932 136.151 104.213 134.355C103.495 132.486 103.351 130.69 103.423 129.397C103.423 128.75 103.495 128.247 103.638 127.888C103.71 127.528 103.782 127.385 103.782 127.385C103.854 127.385 103.71 128.175 103.71 129.397C103.71 130.618 103.926 132.415 104.573 134.211C105.291 136.007 106.297 137.445 107.087 138.379C108.022 139.241 108.668 139.744 108.596 139.816Z" fill="#455A64"/>
<path d="M62.9699 99.9359L70.0117 100.295C70.4428 102.595 72.0236 106.115 72.0236 106.115C77.7002 96.2712 82.0834 83.0499 83.2331 77.7326C83.0893 77.2296 82.8738 76.5829 82.6582 75.9362C82.3708 75.1458 82.5863 73.7805 82.7301 72.9183C82.9456 71.7686 83.2331 70.1159 83.3768 69.3974C83.6642 67.1699 84.0235 66.8106 84.8139 67.0261C85.8917 67.3854 84.3827 73.3494 85.245 73.4213C85.748 73.4931 86.3228 71.4812 86.4665 69.7566C86.6103 68.104 87.4007 62.9304 87.9755 62.5711C88.7659 62.0681 89.4845 62.8585 89.2689 64.5112C89.0533 66.1639 88.7659 71.2656 89.7 71.2656C90.5623 71.3375 91.2808 62.7867 91.2808 62.7867C91.2808 62.7867 91.1371 60.9184 92.1431 60.9903C94.0113 61.0622 92.5742 70.0441 92.3587 70.9063C92.215 71.4812 93.2209 71.6249 93.2928 70.9782C93.3646 70.3315 93.7958 62.4274 95.7359 62.4993C97.173 62.5711 94.5862 69.9004 95.4485 71.6249C96.2389 73.3494 96.8137 65.8046 98.1789 65.9483C98.6819 66.0202 99.0412 66.092 98.1071 70.3315C97.6041 72.6309 96.0951 76.7985 94.8017 80.3194C92.6461 92.1036 83.0175 129.828 67.9997 122.93C59.5927 119.049 55.6406 99.9359 55.6406 99.9359H62.9699Z" fill="#FFBE9D"/>
<path d="M94.8028 80.4627C94.8028 80.4627 94.8028 80.3909 94.8747 80.1753C94.9465 79.9597 95.0184 79.7442 95.1621 79.4568C95.3776 78.8101 95.7369 77.8041 96.1681 76.5825C96.5992 75.361 97.1022 73.852 97.6052 72.0557C97.8926 71.1934 98.1081 70.1874 98.2519 69.1815C98.3237 68.6785 98.4674 68.1036 98.5393 67.6006C98.5393 67.3132 98.6111 67.0258 98.6111 66.8102C98.6111 66.5228 98.5393 66.3072 98.3237 66.3072C98.1081 66.2354 97.9644 66.451 97.7489 66.6665C97.6052 66.8821 97.4614 67.1695 97.3896 67.4569C97.174 68.0318 97.0303 68.6066 96.8866 69.2533C96.7429 69.9 96.5992 70.4748 96.3836 71.1215C96.2399 71.4808 96.2399 71.7682 95.9525 72.1275C95.8806 72.1994 95.8806 72.1994 95.7369 72.2712C95.5932 72.2712 95.5214 72.2712 95.4495 72.1994C95.3776 72.1275 95.3058 71.9838 95.2339 71.912C95.1621 71.6964 95.0902 71.5527 95.0902 71.3371C94.9465 69.9 95.3058 68.5348 95.5214 67.0258C95.6651 66.3072 95.8088 65.5887 95.8806 64.8701C95.9525 64.5109 95.9525 64.1516 95.9525 63.7923C95.9525 63.433 95.8806 63.0019 95.7369 62.93C95.5214 62.8582 95.2339 63.0737 95.0184 63.3612C94.8028 63.6486 94.6591 64.0079 94.5154 64.3672C94.2998 65.0857 94.0842 65.8761 93.9405 66.6665C93.7968 67.4569 93.725 68.2473 93.5813 69.1096C93.5094 69.5407 93.5094 69.9 93.4376 70.3311L93.3657 70.9778C93.3657 71.1215 93.3657 71.4808 93.0783 71.6964C92.8627 71.912 92.5034 71.912 92.216 71.6964C92.0723 71.6245 92.0004 71.4808 91.9286 71.2653C91.9286 71.1934 91.9286 71.1215 91.9286 71.0497V70.906C92.0004 70.4748 92.0723 70.0437 92.1442 69.6844C92.2879 68.8222 92.3597 67.9599 92.4316 67.0977C92.5034 66.2354 92.5753 65.3731 92.5753 64.5109C92.5753 63.6486 92.5753 62.7145 92.2879 61.9241C92.216 61.7085 92.0723 61.4929 91.9286 61.4211C91.7849 61.3492 91.5693 61.4211 91.4256 61.5648C91.21 61.9241 91.1382 62.4989 91.1382 62.93C90.9945 64.6546 90.7789 66.3072 90.5633 67.8881C90.4196 68.6785 90.2759 69.5407 90.1322 70.3311C90.0603 70.5467 89.9885 70.7623 89.9166 70.906C89.8448 71.1215 89.7729 71.3371 89.4855 71.5527C89.2699 71.6964 89.0544 71.5527 88.9825 71.409C88.9107 71.2653 88.8388 71.1934 88.767 71.0497C88.6951 70.8341 88.6233 70.6186 88.6233 70.403C88.4077 68.7503 88.4795 67.2414 88.5514 65.6605C88.5514 64.8701 88.767 64.1516 88.6951 63.433C88.6232 63.0738 88.5514 62.7863 88.264 62.6426C88.1203 62.5708 88.0484 62.5708 87.9047 62.5708C87.8328 62.5708 87.761 62.6426 87.6891 62.6426C87.6173 62.7145 87.6173 62.6426 87.6173 62.7863C87.3298 63.3612 87.1861 64.0797 87.0424 64.7983C86.8987 65.5168 86.755 66.1635 86.6831 66.8102C86.5394 67.4569 86.4676 68.1755 86.3957 68.8222C86.3239 69.4689 86.252 70.1156 86.1083 70.7623C85.9646 71.409 85.8209 72.0557 85.6053 72.6305C85.5335 72.7742 85.4616 72.9179 85.3898 73.0616C85.3179 73.2053 85.246 73.3491 84.9586 73.4928C84.8149 73.5646 84.6712 73.4209 84.5994 73.3491C84.5275 73.2772 84.5275 73.1335 84.4556 73.0616C84.3838 72.9179 84.3838 72.7024 84.3838 72.5586C84.3838 71.3371 84.5275 70.1874 84.5994 69.1096C84.5994 68.6066 84.6712 68.0318 84.5994 67.5288C84.5994 67.3132 84.5275 67.0258 84.3838 66.9539C84.1682 66.8821 83.9526 66.8102 83.8089 66.9539C83.5215 67.1695 83.3778 67.7443 83.306 68.1036C83.2341 68.5348 83.1622 68.9659 83.0904 69.397C82.803 71.1215 82.4437 72.5586 82.3 73.7802C82.2281 74.355 82.2281 74.9299 82.3 75.361C82.3718 75.7921 82.5156 76.1514 82.6593 76.5107C82.7311 76.7981 82.803 77.0137 82.8748 77.2292C82.9467 77.373 82.9467 77.4448 82.9467 77.4448C82.9467 77.4448 82.8748 77.373 82.8748 77.2292C82.803 77.0855 82.7311 76.7981 82.6593 76.5825C82.5874 76.2951 82.4437 75.9358 82.3 75.4329C82.2281 74.9299 82.2281 74.4269 82.3 73.7802C82.4437 72.5586 82.7311 71.1215 83.0185 69.397C83.0904 68.9659 83.1623 68.5347 83.2341 68.0318C83.306 67.8162 83.306 67.6006 83.4497 67.3132C83.5215 67.0976 83.6652 66.8102 83.8808 66.6665C84.1682 66.5228 84.4556 66.5228 84.7431 66.6665C85.1023 66.8821 85.1023 67.1695 85.1742 67.4569C85.2461 67.9599 85.2461 68.5347 85.1742 69.1096C85.1023 70.1874 84.9586 71.3371 84.9586 72.4868C84.9586 72.6305 84.9586 72.7742 85.0305 72.9179C85.0305 73.0616 85.1023 73.1335 85.1023 73.0616C85.1023 73.0616 85.246 72.9179 85.3179 72.8461C85.3898 72.7024 85.4616 72.5587 85.5335 72.4149C85.749 71.8401 85.8927 71.2653 86.0365 70.6186C86.1802 69.9719 86.1802 69.3252 86.252 68.6785C86.3239 68.0318 86.3957 67.3132 86.5394 66.6665C86.6113 66.0198 86.755 65.3013 86.8987 64.5827C87.0424 63.8642 87.1861 63.2175 87.4736 62.4271C87.4736 62.3552 87.6173 62.2115 87.761 62.1396C87.8328 62.0678 87.9766 62.0678 88.0484 61.9959C88.264 61.9241 88.5514 61.9959 88.767 62.1396C89.1981 62.4271 89.2699 62.8582 89.3418 63.2175C89.4137 63.5767 89.4137 64.0079 89.3418 64.3672C89.2699 64.7264 89.2699 65.0857 89.2699 65.5168C89.1981 67.0258 89.1262 68.6066 89.3418 70.1156C89.3418 70.3311 89.4137 70.4748 89.4855 70.6186C89.4855 70.6904 89.5574 70.7623 89.5574 70.8341C89.5574 70.9778 89.5574 70.8341 89.5574 70.906C89.5574 70.906 89.5574 70.906 89.5574 70.8341C89.6292 70.8341 89.7011 70.6186 89.7729 70.4748C89.8448 70.3311 89.9166 70.1156 89.9166 69.9C90.1322 69.1096 90.2759 68.3192 90.3478 67.5288C90.5633 65.8761 90.7789 64.2234 90.9226 62.5708C90.9226 61.9959 90.9226 61.4211 91.2819 60.8462C91.4975 60.5588 91.9286 60.4151 92.2879 60.5588C92.6471 60.7025 92.7909 61.0618 92.9346 61.3492C93.222 62.2833 93.222 63.1456 93.222 64.0797C93.222 64.942 93.1501 65.8761 93.0783 66.7384C93.0064 67.6006 92.8627 68.4629 92.7908 69.3252C92.719 69.7563 92.6471 70.1874 92.5753 70.6186C92.5034 70.906 92.5034 70.906 92.6471 70.9778C92.719 71.0497 92.9346 71.0497 93.0064 70.9778C93.0783 70.906 93.0783 70.7623 93.1501 70.5467L93.222 69.9C93.2938 69.4689 93.2938 69.0377 93.3657 68.6785C93.4375 67.8881 93.5813 67.0258 93.725 66.2354C93.8687 65.445 94.0124 64.6546 94.2998 63.8642C94.4435 63.5049 94.5872 63.0738 94.8028 62.7145C94.9465 62.5708 95.0902 62.3552 95.2339 62.2115C95.4495 62.0678 95.6651 61.9959 95.9525 62.0678C96.2399 62.2115 96.3118 62.4989 96.3118 62.7145C96.3118 62.93 96.3836 63.1456 96.3836 63.2893C96.3836 63.7205 96.3118 64.0797 96.3118 64.439C96.2399 65.1576 96.0962 65.948 95.9525 66.6665C95.7369 68.1036 95.3776 69.5407 95.5214 70.8341C95.5214 70.9778 95.5932 71.1215 95.6651 71.2653C95.6651 71.3371 95.7369 71.409 95.7369 71.409C95.7369 71.4808 95.7369 71.409 95.7369 71.409C95.7369 71.3371 95.7369 71.409 95.7369 71.3371C95.8806 71.1215 96.0243 70.7623 96.0962 70.4748C96.3118 69.8282 96.4555 69.1814 96.5992 68.6066C96.7429 67.9599 96.9585 67.3851 97.1022 66.8102C97.174 66.5228 97.3177 66.2354 97.4614 65.948C97.5333 65.8043 97.6052 65.6605 97.8207 65.5887C97.8926 65.5168 97.9644 65.5168 98.1081 65.445C98.2519 65.445 98.3237 65.445 98.3956 65.445C98.5393 65.445 98.8267 65.5887 98.8267 65.8043C98.8986 65.948 98.8985 66.1635 98.8985 66.3072C98.8985 66.5947 98.8986 66.8821 98.8267 67.1695C98.7548 67.7443 98.683 68.2473 98.5393 68.7503C98.3237 69.7563 98.1081 70.7623 97.8207 71.6245C97.3177 73.4209 96.7429 74.9299 96.3118 76.1514C95.8806 77.373 95.5214 78.3071 95.2339 78.9538C95.0902 79.2412 95.0184 79.5286 94.9465 79.6723C94.8747 80.3909 94.8028 80.4627 94.8028 80.4627Z" fill="#EB996E"/>
<path d="M55.6406 100.726C57.0059 105.54 59.6645 113.013 62.5387 120.846C62.9699 121.995 64.5507 122.067 65.0537 120.989L72.0955 106.115C72.0955 106.115 70.371 93.8998 70.5147 94.331C70.6584 94.7621 55.9999 95.9118 55.9999 95.9118L55.6406 100.726Z" fill="#8C8CF9"/>
<path d="M71.4493 98.355C71.4493 98.4268 70.587 98.6424 69.1499 99.2172C67.7847 99.7202 65.8446 100.582 63.9045 101.732C61.9644 102.882 60.3836 104.175 59.2339 105.181C58.0842 106.187 57.5094 106.834 57.4375 106.762C57.4375 106.762 57.5812 106.546 57.7968 106.259C58.0842 105.972 58.5153 105.469 59.0183 104.966C60.0961 103.888 61.677 102.594 63.6889 101.373C65.629 100.151 67.5691 99.3609 69.0062 98.9298C69.7248 98.7142 70.2996 98.4987 70.7307 98.4268C71.2337 98.355 71.4493 98.2831 71.4493 98.355Z" fill="#FAFAFA"/>
<path d="M74.251 102.02C74.1791 102.02 73.748 101.517 73.1013 100.511C72.4546 99.5049 71.6642 98.0678 70.9456 96.4151C70.2271 94.7625 69.796 93.1098 69.5804 91.9601C69.3648 90.8104 69.293 90.02 69.293 90.02C69.3648 90.02 69.5085 90.7386 69.796 91.8883C70.0834 93.0379 70.5864 94.6188 71.2331 96.2714C71.9516 97.9241 72.6702 99.3612 73.3169 100.367C73.8917 101.373 74.251 102.02 74.251 102.02Z" fill="#263238"/>
<path d="M78.9191 36.1999C76.4761 40.1519 75.9731 45.3255 77.5539 49.7087C78.2724 51.6488 79.4221 53.6607 79.2065 55.7445C78.991 57.9002 77.3383 59.9121 77.9132 61.9959C78.2724 63.2175 79.2784 64.1516 79.7095 65.3731C80.2125 66.8102 79.7095 68.3192 79.494 69.8281C78.9191 73.5646 80.1407 77.373 80.4281 81.1813C80.7155 84.9896 79.7095 89.4446 76.3323 91.0973C75.3264 91.6003 73.9611 91.744 73.0989 90.9536C72.021 89.9476 72.3084 88.2231 72.5959 86.786C75.5419 72.4149 66.4163 58.4032 68.5001 43.8165C68.8594 41.5172 70.1528 37.5651 71.8055 35.9125C73.4581 34.2598 78.1287 34.4754 79.7095 36.1999" fill="#263238"/>
<path d="M64.7656 77.876C64.7656 77.876 65.1968 77.373 65.8435 76.367C66.4902 75.361 67.2806 73.7802 67.7117 71.6964C67.9273 70.6186 67.9991 69.4689 67.9273 68.1755C67.8554 66.8821 67.7117 65.5169 67.7835 64.0798C67.7835 63.3612 67.9991 62.6427 68.2147 61.8522C68.5021 61.1337 68.7895 60.4151 69.2206 59.7684C70.0111 58.4032 71.017 57.1098 71.9512 55.8164C72.8853 54.4512 73.6757 53.014 73.8912 51.5051C74.1787 49.9961 73.8912 48.4872 73.6757 47.1219C73.4601 45.6848 73.2445 44.3196 73.3883 43.0262C73.4601 41.7328 73.7475 40.5831 74.1068 39.5053C74.8254 37.4215 75.8313 35.9844 76.6217 35.0502C77.0529 34.6191 77.3403 34.2598 77.6277 34.0443C77.8433 33.8287 77.987 33.7568 77.987 33.7568C77.987 33.7568 77.484 34.2598 76.7655 35.1939C76.0469 36.1281 75.0409 37.637 74.3942 39.649C74.035 40.6549 73.8194 41.8046 73.7475 43.098C73.6757 44.3914 73.8194 45.6848 74.1068 47.1219C74.3224 48.559 74.6098 50.068 74.3942 51.6488C74.1068 53.2296 73.3164 54.7386 72.3823 56.1038C71.4482 57.4691 70.4422 58.7625 69.6518 60.0559C69.2925 60.7026 68.9332 61.4211 68.7177 62.0678C68.5021 62.7864 68.3584 63.5049 68.2865 64.1516C68.2147 65.5887 68.3584 66.954 68.4302 68.1755C68.5021 69.4689 68.3584 70.6904 68.1428 71.7683C67.7117 73.9239 66.8494 75.5047 66.1309 76.5107C65.7716 77.0137 65.4842 77.373 65.2686 77.5885C64.9093 77.8041 64.7656 77.876 64.7656 77.876Z" fill="#455A64"/>
<path d="M57.9375 78.954C57.9375 78.954 58.0094 78.8102 58.1531 78.451C58.2968 78.0917 58.5842 77.6606 58.8716 77.0857C59.4465 75.936 60.3806 74.2115 61.2428 72.0559C62.1051 69.9002 62.9674 67.1697 62.9674 64.0799C62.9674 63.2895 62.8955 62.4991 62.8237 61.7087C62.6799 60.9183 62.5362 60.1279 62.3925 59.2656C62.2488 58.4033 62.2488 57.5411 62.4644 56.607C62.6799 55.7447 63.2548 54.8824 63.9015 54.3076C65.2667 53.0861 66.9194 52.2957 67.7098 50.8585C68.5721 49.4214 68.7876 47.7688 69.0032 46.2598C69.2188 44.679 69.5062 43.2419 70.0092 41.9485C70.5122 40.6551 71.1589 39.5054 71.8056 38.4994C73.1708 36.5593 74.6798 35.3378 75.8295 34.6193C76.4043 34.26 76.8354 33.9726 77.1229 33.8288C77.4103 33.6851 77.6258 33.6133 77.6258 33.6133C77.6258 33.6851 76.9791 33.9726 75.9013 34.6911C74.8235 35.4815 73.3864 36.7031 72.0211 38.6432C71.3744 39.5773 70.7277 40.727 70.2966 42.0203C69.7936 43.3137 69.5062 44.7508 69.3625 46.3317C69.1469 47.8406 69.0032 49.5652 68.0691 51.0741C67.135 52.6549 65.4823 53.4453 64.1889 54.6669C63.5422 55.2417 63.0392 55.9603 62.8237 56.8225C62.6081 57.6129 62.6799 58.4752 62.7518 59.3375C62.8955 60.1997 63.0392 60.9901 63.1829 61.7805C63.3266 62.571 63.3266 63.4332 63.3266 64.2236C63.2548 67.3853 62.3925 70.1158 61.4584 72.2714C60.5243 74.4271 59.5902 76.1516 58.9435 77.3013C58.6561 77.8761 58.3686 78.3073 58.1531 78.5947C58.0812 78.8102 57.9375 78.954 57.9375 78.954Z" fill="#455A64"/>
<path d="M295.713 282.017C295.713 282.017 295.784 281.945 295.856 281.73C295.928 281.514 296.072 281.227 296.287 280.868C296.647 280.077 297.078 278.928 297.509 277.419C298.299 274.329 298.587 269.586 297.437 263.982C296.862 261.179 296 258.161 294.922 255C293.844 251.766 292.623 248.389 291.617 244.724C290.611 241.06 289.82 237.108 289.964 232.94C290.108 228.773 291.329 224.605 292.695 220.437C294.06 216.27 295.425 212.246 295.856 208.15C296.359 204.054 295.425 200.102 293.629 196.797C291.832 193.492 289.533 190.617 287.88 187.743C286.156 184.797 285.078 181.779 284.431 178.977C283.138 173.3 283.569 168.558 284.216 165.468C284.862 162.306 285.653 160.726 285.653 160.726C285.653 160.726 285.653 160.869 285.581 161.013C285.509 161.229 285.437 161.516 285.294 161.947C285.078 162.738 284.719 163.959 284.431 165.54C283.856 168.702 283.497 173.372 284.791 178.977C285.437 181.779 286.515 184.725 288.24 187.599C289.964 190.474 292.192 193.348 294.06 196.653C295.928 199.959 296.862 204.126 296.359 208.222C295.928 212.39 294.491 216.485 293.198 220.581C291.832 224.749 290.611 228.844 290.467 232.94C290.323 237.036 291.042 240.988 292.048 244.653C293.054 248.317 294.275 251.694 295.281 254.928C296.359 258.161 297.222 261.179 297.725 263.982C298.874 269.658 298.515 274.401 297.725 277.49C297.293 279.071 296.79 280.221 296.431 280.939C296.216 281.299 296.072 281.586 296 281.802C295.784 281.945 295.713 282.017 295.713 282.017Z" fill="#263238"/>
<path d="M290.174 190.545C290.174 190.545 286.725 179.552 292.905 173.085C293.121 172.869 293.48 172.941 293.552 173.3C293.839 175.097 294.27 180.629 290.174 190.545Z" fill="#8C8CF9"/>
<path d="M292.187 176.75C292.259 176.75 292.115 177.54 291.972 178.761C291.756 180.127 291.469 181.779 291.181 183.648C290.894 185.444 290.606 187.097 290.391 188.462C290.175 189.683 290.103 190.474 290.032 190.474C289.96 190.474 289.96 189.683 290.103 188.462C290.247 187.24 290.463 185.444 290.75 183.576C291.038 181.708 291.397 179.983 291.684 178.761C291.972 177.54 292.115 176.75 292.187 176.75Z" fill="#263238"/>
<path d="M294.199 216.486C294.199 216.486 296.283 205.133 304.762 202.33C305.049 202.258 305.337 202.474 305.265 202.833C304.69 204.558 302.463 209.659 294.199 216.486Z" fill="#8C8CF9"/>
<path d="M302.464 205.277C302.536 205.348 302.033 205.923 301.314 206.929C300.452 208.079 299.446 209.372 298.368 210.881C297.291 212.318 296.285 213.684 295.422 214.833C294.704 215.839 294.201 216.486 294.129 216.414C294.057 216.414 294.488 215.696 295.135 214.618C295.853 213.54 296.859 212.103 298.009 210.594C299.159 209.085 300.237 207.72 301.099 206.714C301.889 205.78 302.392 205.205 302.464 205.277Z" fill="#263238"/>
<path d="M291.904 244.868C291.904 244.868 290.611 233.443 297.94 228.27C298.228 228.054 298.515 228.27 298.515 228.557C298.515 230.425 297.868 235.958 291.904 244.868Z" fill="#8C8CF9"/>
<path d="M296.573 231.791C296.645 231.791 296.357 232.581 295.926 233.731C295.423 235.024 294.848 236.605 294.202 238.329C293.555 240.054 292.98 241.635 292.549 242.928C292.118 244.078 291.902 244.868 291.83 244.796C291.759 244.796 291.902 244.006 292.262 242.784C292.621 241.563 293.196 239.91 293.842 238.114C294.489 236.317 295.136 234.665 295.639 233.515C296.142 232.437 296.501 231.719 296.573 231.791Z" fill="#263238"/>
<path d="M298.296 273.466C298.296 273.466 297.434 261.97 304.907 257.083C305.194 256.94 305.481 257.083 305.481 257.443C305.41 259.311 304.547 264.772 298.296 273.466Z" fill="#8C8CF9"/>
<path d="M303.396 260.533C303.468 260.533 303.18 261.323 302.677 262.473C302.174 263.766 301.528 265.347 300.809 267C300.091 268.724 299.516 270.233 298.941 271.527C298.51 272.676 298.222 273.395 298.15 273.395C298.079 273.395 298.294 272.604 298.653 271.383C299.013 270.161 299.659 268.581 300.378 266.784C301.097 264.988 301.815 263.407 302.39 262.257C302.965 261.179 303.324 260.533 303.396 260.533Z" fill="#263238"/>
<path d="M285.22 180.845C285.22 180.845 275.016 175.527 274.801 166.617C274.801 166.33 275.16 166.114 275.376 166.258C276.885 167.336 281.124 170.929 285.22 180.845Z" fill="#8C8CF9"/>
<path d="M276.883 169.707C276.955 169.707 277.386 170.282 278.176 171.288C279.038 172.438 279.973 173.803 281.05 175.24C282.128 176.749 283.134 178.042 283.925 179.192C284.643 180.198 285.146 180.845 285.074 180.845C285.002 180.916 284.499 180.342 283.637 179.336C282.847 178.402 281.769 176.964 280.619 175.455C279.47 173.875 278.535 172.438 277.817 171.36C277.242 170.426 276.883 169.707 276.883 169.707Z" fill="#263238"/>
<path d="M296.141 204.485C296.141 204.485 285.65 199.815 284.859 190.905C284.859 190.617 285.147 190.402 285.434 190.545C287.087 191.479 291.47 194.857 296.141 204.485Z" fill="#8C8CF9"/>
<path d="M287.23 193.851C287.302 193.779 287.805 194.426 288.596 195.36C289.458 196.437 290.536 197.731 291.685 199.168C292.835 200.605 293.913 201.898 294.775 202.976C295.566 203.91 296.069 204.557 296.069 204.557C295.997 204.629 295.422 204.054 294.56 203.192C293.697 202.258 292.548 200.964 291.326 199.455C290.105 197.946 289.027 196.581 288.308 195.575C287.59 194.497 287.159 193.851 287.23 193.851Z" fill="#263238"/>
<path d="M290.105 230.857C290.105 230.857 282.848 221.875 286.297 213.611C286.441 213.324 286.8 213.252 286.944 213.539C287.95 215.12 290.321 220.078 290.105 230.857Z" fill="#8C8CF9"/>
<path d="M287.015 217.276C287.087 217.276 287.231 217.994 287.518 219.216C287.806 220.581 288.165 222.234 288.596 224.03C288.955 225.827 289.315 227.479 289.674 228.845C289.961 230.066 290.105 230.857 290.033 230.857C289.961 230.857 289.674 230.138 289.315 228.916C288.955 227.695 288.524 226.042 288.165 224.102C287.734 222.234 287.446 220.509 287.231 219.288C287.015 218.066 286.943 217.276 287.015 217.276Z" fill="#263238"/>
<path d="M297.291 261.826C297.291 261.826 286.872 256.94 286.297 248.03C286.297 247.742 286.584 247.527 286.872 247.67C288.381 248.676 292.764 252.125 297.291 261.826Z" fill="#8C8CF9"/>
<path d="M288.523 251.048C288.595 251.048 289.098 251.623 289.889 252.557C290.751 253.635 291.829 255 292.907 256.437C294.056 257.874 295.062 259.167 295.996 260.245C296.787 261.251 297.29 261.826 297.218 261.898C297.146 261.97 296.571 261.395 295.781 260.461C294.918 259.527 293.769 258.233 292.619 256.724C291.398 255.215 290.392 253.85 289.673 252.772C288.883 251.695 288.452 251.048 288.523 251.048Z" fill="#263238"/>
<path d="M318.054 216.557C318.054 216.557 318.054 216.629 318.054 216.845C318.054 217.06 318.054 217.276 318.054 217.563C318.054 218.282 317.982 219.216 317.91 220.365C317.766 222.809 317.623 226.258 317.335 230.353C316.617 234.521 314.461 239.12 311.587 243.647C309.503 246.952 307.276 249.97 305.407 252.772C303.539 255.575 301.886 258.161 300.809 260.461C299.659 262.76 299.012 264.7 298.653 266.065C298.437 266.784 298.366 267.287 298.222 267.646C298.15 268.006 298.078 268.221 298.078 268.221C298.078 268.221 298.078 268.006 298.15 267.646C298.222 267.287 298.294 266.712 298.509 265.994C298.869 264.628 299.443 262.616 300.593 260.317C301.671 258.018 303.252 255.359 305.192 252.557C307.06 249.754 309.288 246.736 311.299 243.431C314.102 238.976 316.258 234.449 317.048 230.281C317.335 226.186 317.551 222.737 317.766 220.294C317.838 219.144 317.91 218.21 317.982 217.491C317.982 217.204 318.054 216.988 318.054 216.773C318.054 216.629 318.054 216.557 318.054 216.557Z" fill="#263238"/>
<path d="M311.878 242.713C311.878 242.713 316.333 232.078 310.728 225.108C310.512 224.893 310.153 224.965 310.081 225.252C309.578 227.048 308.644 232.509 311.878 242.713Z" fill="#8C8CF9"/>
<path d="M311.016 228.845C311.087 228.845 311.231 229.636 311.375 230.857C311.519 232.079 311.734 233.803 311.878 235.743C312.022 237.683 312.093 239.408 312.093 240.629C312.093 241.923 312.022 242.641 311.95 242.641C311.878 242.641 311.878 241.851 311.734 240.629C311.662 239.192 311.519 237.54 311.375 235.743C311.231 233.947 311.159 232.222 311.016 230.857C311.016 229.636 311.016 228.845 311.016 228.845Z" fill="#263238"/>
<g opacity="0.3">
<g opacity="0.3">
<path opacity="0.3" d="M311.878 242.713C311.878 242.713 316.333 232.078 310.728 225.108C310.512 224.893 310.153 224.965 310.081 225.252C309.578 227.048 308.644 232.509 311.878 242.713Z" fill="black"/>
</g>
</g>
<path d="M298.153 268.365C298.153 268.365 301.674 257.371 295.566 250.904C295.351 250.688 294.992 250.76 294.92 251.12C294.56 252.916 294.129 258.449 298.153 268.365Z" fill="#8C8CF9"/>
<path d="M296.211 254.569C296.282 254.569 296.498 255.287 296.714 256.581C297.001 257.802 297.288 259.527 297.576 261.395C297.863 263.263 298.079 265.06 298.151 266.281C298.222 267.575 298.222 268.293 298.222 268.293C298.151 268.293 298.079 267.503 297.863 266.281C297.648 264.916 297.432 263.263 297.145 261.395C296.857 259.599 296.642 257.946 296.426 256.509C296.282 255.359 296.139 254.569 296.211 254.569Z" fill="#263238"/>
<g opacity="0.3">
<g opacity="0.3">
<path opacity="0.3" d="M298.153 268.365C298.153 268.365 301.674 257.371 295.566 250.904C295.351 250.688 294.992 250.76 294.92 251.12C294.56 252.916 294.129 258.449 298.153 268.365Z" fill="black"/>
</g>
</g>
<path d="M317.48 229.707C317.48 229.707 326.894 223.096 325.959 214.258C325.959 213.97 325.528 213.827 325.313 214.042C323.947 215.264 320.283 219.36 317.48 229.707Z" fill="#8C8CF9"/>
<g opacity="0.3">
<g opacity="0.3">
<path opacity="0.3" d="M317.48 229.707C317.48 229.707 326.894 223.096 325.959 214.258C325.959 213.97 325.528 213.827 325.313 214.042C323.947 215.264 320.283 219.36 317.48 229.707Z" fill="black"/>
</g>
</g>
<path d="M324.233 217.563C324.305 217.563 324.018 218.282 323.443 219.431C322.94 220.581 322.15 222.09 321.215 223.814C320.281 225.539 319.419 226.976 318.772 228.054C318.126 229.132 317.623 229.707 317.551 229.707C317.479 229.707 317.91 228.988 318.485 227.91C319.132 226.689 319.994 225.18 320.856 223.599C321.718 222.018 322.509 220.509 323.227 219.288C323.802 218.21 324.233 217.563 324.233 217.563Z" fill="#263238"/>
<path d="M301.961 257.515C301.961 257.515 313.314 255.719 316.404 247.383C316.476 247.096 316.26 246.808 315.973 246.88C314.176 247.383 309.003 249.467 301.961 257.515Z" fill="#8C8CF9"/>
<g opacity="0.3">
<g opacity="0.3">
<path opacity="0.3" d="M301.961 257.515C301.961 257.515 313.314 255.719 316.404 247.383C316.476 247.096 316.26 246.808 315.973 246.88C314.176 247.383 309.003 249.467 301.961 257.515Z" fill="black"/>
</g>
</g>
<path d="M313.384 249.539C313.456 249.61 312.81 250.113 311.875 250.904C310.869 251.694 309.504 252.772 307.923 253.85C306.343 255 304.905 255.934 303.828 256.58C302.75 257.227 302.031 257.586 302.031 257.515C302.031 257.443 302.606 257.012 303.684 256.293C304.834 255.503 306.199 254.497 307.708 253.491C309.217 252.413 310.582 251.479 311.732 250.616C312.738 249.97 313.384 249.539 313.384 249.539Z" fill="#263238"/>
<path d="M291.11 278.425L287.805 300.844H308.499L305.769 278.425H291.11Z" fill="#455A64"/>
<path d="M306.631 285.394C306.631 285.538 302.895 285.61 298.296 285.61C293.697 285.61 289.961 285.538 289.961 285.394C289.961 285.251 293.697 285.179 298.296 285.179C302.895 285.179 306.631 285.251 306.631 285.394Z" fill="#263238"/>
<path d="M307.062 287.191C307.062 287.334 303.181 287.406 298.439 287.406C293.697 287.406 289.816 287.334 289.816 287.191C289.816 287.047 293.697 286.975 298.439 286.975C303.181 286.975 307.062 287.047 307.062 287.191Z" fill="#263238"/>
<path d="M226.585 61.6374C226.585 61.6374 226.369 61.6374 226.01 61.6374C225.651 61.6374 225.076 61.5655 224.357 61.6374C222.92 61.7093 220.765 61.9967 218.25 63.0745C215.735 64.1523 212.789 66.0206 210.489 69.1103C209.34 70.6912 208.334 72.5594 207.759 74.6432C207.184 76.7989 206.968 79.0982 207.256 81.5413C207.543 83.9844 208.334 86.4993 209.627 88.7987C210.274 89.9484 211.064 91.0262 212.07 92.0322C213.004 93.0382 214.154 93.9723 215.376 94.619C216.597 95.2657 218.034 95.6968 219.543 95.6968C220.98 95.6249 222.489 95.122 223.567 94.0441C224.645 92.9663 225.148 91.4573 225.148 89.8765C225.148 88.2957 224.645 86.7867 223.711 85.4934C221.843 82.9066 218.825 81.1102 215.591 80.1761C212.358 79.2419 208.765 79.242 205.388 80.0324C203.663 80.4635 202.01 81.1102 200.501 81.9724C198.921 82.8347 197.555 83.9844 196.262 85.2778C195.975 85.6371 195.615 85.9245 195.4 86.2838L194.609 87.3616C194.106 88.152 193.675 88.9424 193.316 89.7328C192.526 91.3855 192.023 93.1819 191.735 95.0501C191.232 98.7147 191.663 102.523 193.172 105.828C194.609 109.134 197.052 112.008 200.142 113.732C201.651 114.595 203.376 115.098 205.028 115.241C206.753 115.313 208.406 114.882 209.843 114.092C211.28 113.229 212.501 112.008 213.148 110.499C213.795 108.99 213.795 107.266 213.22 105.828C212.717 104.319 211.711 103.026 210.489 102.02C209.34 101.014 207.974 100.224 206.537 99.7207C203.663 98.7866 200.573 98.8584 197.771 99.577C194.969 100.296 192.526 101.733 190.585 103.601C188.645 105.469 187.28 107.697 186.49 109.996C184.837 114.595 185.268 119.337 186.705 122.93C188.142 126.523 190.514 129.11 192.597 130.834C194.753 132.559 196.693 133.493 198.058 133.996C198.705 134.283 199.28 134.427 199.639 134.571C199.999 134.714 200.142 134.714 200.142 134.714C200.142 134.714 199.927 134.642 199.567 134.571C199.208 134.499 198.705 134.283 197.987 134.068C196.621 133.565 194.681 132.63 192.454 130.978C190.298 129.253 187.927 126.666 186.418 123.074C184.981 119.481 184.478 114.667 186.202 109.996C186.993 107.697 188.43 105.397 190.37 103.529C192.31 101.661 194.825 100.224 197.627 99.4333C200.43 98.6429 203.591 98.571 206.537 99.577C207.974 100.08 209.412 100.87 210.633 101.948C211.855 103.026 212.861 104.319 213.435 105.9C214.01 107.481 214.01 109.277 213.364 110.858C212.717 112.439 211.423 113.732 209.915 114.595C208.406 115.457 206.609 115.888 204.885 115.816C203.088 115.744 201.364 115.17 199.783 114.307C196.621 112.583 194.178 109.637 192.669 106.26C191.16 102.882 190.729 99.0021 191.16 95.2657C191.448 93.3974 191.951 91.6011 192.741 89.8765C193.1 89.0143 193.603 88.2239 194.106 87.4334L194.969 86.2838C195.256 85.9245 195.615 85.5652 195.903 85.2059C197.196 83.8407 198.633 82.691 200.214 81.8287C201.795 80.9665 203.519 80.3198 205.244 79.8168C208.693 78.9545 212.358 79.0264 215.663 79.9605C218.968 80.9665 221.986 82.691 223.926 85.4215C224.86 86.7868 225.435 88.3676 225.435 90.0202C225.435 91.6011 224.86 93.2537 223.711 94.4034C222.561 95.5531 220.98 96.0561 219.471 96.1279C217.962 96.1998 216.453 95.7687 215.16 95.0501C213.867 94.3316 212.717 93.3974 211.783 92.3915C210.777 91.3855 209.986 90.2358 209.34 89.0861C207.974 86.7149 207.256 84.2 206.897 81.7569C206.609 79.3138 206.825 76.8707 207.4 74.7151C207.974 72.5594 208.98 70.6912 210.202 69.1103C212.573 65.9487 215.519 64.0805 218.106 63.0745C220.693 61.9967 222.848 61.7811 224.286 61.7093C225.004 61.6374 225.579 61.7093 225.938 61.7093C226.369 61.6374 226.585 61.6374 226.585 61.6374Z" fill="#263238"/>
<path d="M250.585 133.564H149.844V211.24H250.585V133.564Z" fill="#8C8CF9"/>
<path d="M149.844 133.564L168.454 150.953H267.471L250.585 133.564H149.844Z" fill="#8C8CF9"/>
<path d="M149.844 133.564C151.64 133.564 193.244 133.492 250.585 133.349H250.657L250.729 133.42C256.118 138.953 261.722 144.702 267.471 150.594C267.543 150.666 267.615 150.738 267.615 150.738L267.902 151.025H267.471C226.873 151.025 190.801 150.953 168.454 150.953H168.382C156.67 140.031 150.419 134.139 149.844 133.564C150.49 134.139 156.814 139.959 168.526 150.809H168.454C190.873 150.809 226.873 150.738 267.471 150.738L267.327 151.025C267.255 150.953 267.183 150.881 267.183 150.881C261.435 144.989 255.83 139.241 250.441 133.708L250.585 133.78C193.244 133.636 151.64 133.564 149.844 133.564Z" fill="#263238"/>
<path d="M180.096 169.42C179.018 169.42 178.084 170.355 178.012 171.432C178.012 172.51 178.946 173.516 180.024 173.516C181.101 173.588 182.107 172.654 182.179 171.576C182.251 170.498 181.317 169.492 180.239 169.42" fill="#263238"/>
<path d="M203.881 169.42C202.803 169.42 201.869 170.355 201.797 171.432C201.797 172.51 202.731 173.516 203.809 173.516C204.887 173.588 205.893 172.654 205.964 171.576C206.036 170.498 205.102 169.492 204.024 169.42" fill="#263238"/>
<path d="M204.023 188.031C203.951 188.103 203.736 186.091 202.011 183.576C201.149 182.354 199.927 180.989 198.203 179.911C196.55 178.833 194.394 178.043 192.095 177.971C189.796 177.899 187.64 178.618 185.915 179.552C184.191 180.558 182.826 181.779 181.892 183.001C180.023 185.444 179.736 187.384 179.664 187.384C179.664 187.384 179.664 187.24 179.736 187.025C179.808 186.809 179.88 186.45 180.023 186.091C180.311 185.3 180.814 184.151 181.748 182.857C182.682 181.636 183.975 180.271 185.772 179.265C187.568 178.259 189.796 177.54 192.167 177.612C194.538 177.684 196.766 178.474 198.418 179.624C200.143 180.774 201.436 182.139 202.227 183.432C203.089 184.726 203.52 185.875 203.736 186.738C203.879 187.169 203.879 187.456 203.951 187.672C204.023 187.887 204.023 188.031 204.023 188.031Z" fill="#263238"/>
<path opacity="0.5" d="M150.059 134.427L167.879 156.989H250.584V150.953H168.454L150.059 134.427Z" fill="black"/>
<path d="M230.68 211.096C230.609 211.096 230.465 197.587 230.465 180.917C230.465 164.247 230.537 150.738 230.68 150.738C230.752 150.738 230.896 164.247 230.896 180.917C230.896 197.587 230.824 211.096 230.68 211.096Z" fill="#263238"/>
<path d="M246.558 193.492H237.648V203.551H246.558V193.492Z" fill="#F5F5F5"/>
<path d="M149.843 133.564L129.148 150.953H149.843V133.564Z" fill="#8C8CF9"/>
<g opacity="0.4">
<path opacity="0.4" d="M149.843 133.564L129.148 150.953H149.843V133.564Z" fill="black"/>
</g>
<path d="M253.53 211.24H137.699V300.556H253.53V211.24Z" fill="#8C8CF9"/>
<path opacity="0.3" d="M253.53 211.24H137.699V300.556H253.53V211.24Z" fill="black"/>
<path d="M224.501 299.981C224.429 299.981 224.285 280.077 224.285 255.503C224.285 230.928 224.357 211.024 224.501 211.024C224.644 211.024 224.716 230.928 224.716 255.503C224.716 280.077 224.644 299.981 224.501 299.981Z" fill="#263238"/>
<path d="M243.758 280.293H234.848V290.353H243.758V280.293Z" fill="#F5F5F5"/>
<path d="M186.2 211.527H173.051V230.569H186.2V211.527Z" fill="#263238"/>
<path d="M186.2 281.299H173.051V300.34H186.2V281.299Z" fill="#263238"/>
<path d="M252.524 211.24C252.524 211.24 252.452 211.24 252.237 211.24C252.021 211.24 251.734 211.24 251.374 211.24C250.584 211.24 249.434 211.24 247.997 211.24C245.051 211.24 240.883 211.24 235.71 211.312C225.291 211.312 210.992 211.312 195.112 211.384C179.232 211.384 164.932 211.312 154.513 211.312C149.34 211.312 145.1 211.24 142.226 211.24C140.789 211.24 139.639 211.24 138.849 211.24C138.49 211.24 138.202 211.24 137.987 211.24C137.771 211.24 137.699 211.24 137.699 211.24C137.699 211.24 137.771 211.24 137.987 211.24C138.202 211.24 138.49 211.24 138.849 211.24C139.639 211.24 140.789 211.24 142.226 211.24C145.172 211.24 149.34 211.24 154.513 211.168C164.932 211.168 179.232 211.168 195.112 211.096C210.92 211.096 225.291 211.168 235.71 211.168C240.883 211.168 245.123 211.24 247.997 211.24C249.434 211.24 250.584 211.24 251.374 211.24C251.734 211.24 252.021 211.24 252.237 211.24C252.452 211.24 252.524 211.24 252.524 211.24Z" fill="#263238"/>
<path d="M53.9863 56.6075C53.1241 56.3919 49.172 55.3859 41.3398 53.5177H41.4117C38.6093 55.3141 34.8728 56.6793 30.4897 56.7512C28.334 56.7512 26.0346 56.4637 23.7353 55.7452C21.4359 55.0266 19.2084 53.877 17.1246 52.2243C13.0288 49.0626 9.86719 44.0328 9.14864 38.1406C8.78936 35.2664 9.00493 32.1767 9.93905 29.3024C10.8732 26.4282 12.454 23.6259 14.5378 21.3265C15.6156 20.105 16.909 19.099 18.2024 18.1649C18.8491 17.7338 19.5677 17.3026 20.2862 16.9433L21.364 16.4404L21.867 16.1529L22.4419 15.9374C25.3879 14.7877 28.4777 14.3566 31.4956 14.5721C34.5135 14.7877 37.3878 15.5781 39.9027 16.9433C42.4176 18.2367 44.5733 20.0331 46.2978 22.1169C48.0223 24.1289 49.2439 26.4282 50.0343 28.7276C50.8247 31.027 51.184 33.3263 51.184 35.5539C51.184 39.937 49.8187 43.7454 48.1661 46.4759V46.3321C51.8307 52.6554 53.6271 55.8889 53.9863 56.6075C53.5552 55.8889 51.7588 52.7273 48.0942 46.4759V46.404V46.3321C49.7469 43.6016 51.0403 39.8652 51.0403 35.5539C51.0403 33.3982 50.6091 31.0988 49.8906 28.8713C49.1002 26.6438 47.8786 24.3444 46.226 22.4043C44.5733 20.3924 42.4176 18.6679 39.9746 17.3745C37.5315 16.0811 34.6573 15.2907 31.7112 15.0751C28.7651 14.8595 25.6754 15.2907 22.8011 16.4404L22.2263 16.6559L21.7233 16.9433L20.6455 17.3026C19.9269 17.6619 19.2802 18.093 18.6335 18.5242C17.3401 19.4583 16.1186 20.4643 15.0408 21.6139C12.957 23.9133 11.3762 26.5719 10.5139 29.4462C9.65163 32.3204 9.3642 35.2664 9.72348 38.1406C10.3702 43.8891 13.5318 48.8471 17.4838 51.9369C19.4958 53.5177 21.7233 54.6674 23.9508 55.3859C26.1783 56.1045 28.4777 56.3919 30.5615 56.3919C34.8728 56.32 38.5374 54.9548 41.3398 53.2303H41.4117H41.4835C49.172 55.3141 53.1959 56.3919 53.9863 56.6075Z" fill="#263238"/>
<path d="M28.549 26.2848L29.1957 36.8475C29.2676 37.7097 29.9143 38.4283 30.7766 38.4283C31.7107 38.5002 32.5011 37.7816 32.5729 36.9193L33.7226 26.3566C33.7945 25.5662 33.1478 24.8477 32.3574 24.8477H29.7706C29.052 24.8477 28.4772 25.4944 28.549 26.2848Z" fill="#8C8CF9"/>
<path d="M33.5813 44.3202C33.1501 45.6854 31.713 46.404 30.3478 45.9729C28.9825 45.5417 28.264 44.1046 28.6951 42.7394C29.1262 41.3741 30.5633 40.6556 31.9286 41.0867C33.2938 41.5178 34.0124 43.0268 33.5813 44.3202Z" fill="#8C8CF9"/>
</svg>
